<svg  version="1.1" xmlns="http://www.w3.org/2000/svg" xmlns:xlink="http://www.w3.org/1999/xlink" x="0px" y="0px" width="80px" height="104px" viewBox="0 0 80 104" enable-background="new 0 0 80 104" xml:space="preserve"><path fill="#f4b37d" d="M7,55L38,55L38,104L42,104L42,55L73,55L73,104L7,104L7,55ZM38,51L0,51L0,25L7.659,25C6.377,21.159 5.814,18.201 6.054,14.966C6.429,9.993 8.633,5.25 12.255,2.638C15.877,0.026 20.437,-0.681 25.094,0.673C29.562,1.961 33.601,5.012 36.474,9.247C38.241,11.854 39.389,14.697 39.961,17.53C40.559,14.618 41.758,11.733 43.609,9.073C46.532,4.873 50.609,1.918 55.089,0.686C59.759,-0.594 64.311,0.234 67.903,2.894C71.496,5.554 73.646,10.171 73.961,15.148C74.163,18.334 73.578,21.178 72.304,25L80,25L80,51L42,51L42,26L38,26L38,51ZM34.954,25C35.567,20.951 34.65,16.681 32.137,12.97C29.962,9.767 26.958,6.947 23.664,5.997C22.604,5.689 21.552,5.606 20.538,5.606C18.603,5.606 16.803,6.305 15.288,7.394C12.987,9.056 11.586,12.076 11.334,15.387C11.101,18.5 11.911,21.202 13.609,25L34.954,25ZM66.337,25C68.041,21.22 68.871,18.628 68.677,15.538C68.467,12.223 67.095,8.939 64.815,7.251C63.284,6.118 61.441,5.606 59.46,5.606C58.484,5.606 57.479,5.888 56.452,6.17C53.154,7.077 50.121,9.611 47.908,12.787C45.308,16.527 44.353,20.93 44.985,25L66.337,25Z"/></svg>